Coordinates
version=1
nRows=14
nColumns=46
inDegrees=yes

Units are S.I. units (second, meters, Newtons, ...)
Angles are in degrees.

endheader
time	pelvis_tilt	pelvis_list	pelvis_rotation	pelvis_tx	pelvis_ty	pelvis_tz	bb_angle	bb_tx	bb_ty	bb_tz	hip_flexion_r	hip_adduction_r	hip_rotation_r	knee_angle_r	knee_angle_r_beta	ankle_angle_r	subtalar_angle_r	mtp_angle_r	crank_angle_r	hip_flexion_l	hip_adduction_l	hip_rotation_l	knee_angle_l	knee_angle_l_beta	ankle_angle_l	subtalar_angle_l	mtp_angle_l	crank_angle_l	lumbar_extension	lumbar_bending	lumbar_rotation	arm_flex_r	arm_add_r	arm_rot_r	elbow_flex_r	pro_sup_r	wrist_flex_r	wrist_dev_r	arm_flex_l	arm_add_l	arm_rot_l	elbow_flex_l	pro_sup_l	wrist_flex_l	wrist_dev_l
      7.50500000	    -12.44744134	     -0.88223030	     -0.19315838	      0.06119612	      1.11295945	     -0.26606618	      0.00000000	      0.50000000	      0.00000000	      0.25000000	     55.92029540	     -1.28283741	      2.49761542	     48.45571504	      0.84571177	     -4.11361207	    -15.45967928	      0.00000000	      0.00000000	     69.23718219	     -4.33016722	      5.72188573	     99.56352478	      1.73771132	    -20.32137521	    -16.23536890	      0.00000000	      0.00000000	    -62.46611967	     -1.22077163	     -2.99415363	     89.70529180	    -13.70237033	     30.47089047	     50.81913011	     29.95560865	      0.00000000	      0.00000000	     89.58234636	    -24.29626220	     35.63875807	     58.64165352	     35.50004027	      0.00000000	      0.00000000
      7.51000000	    -12.46512038	     -0.41731100	      0.34769968	      0.06197415	      1.11335017	     -0.26519332	      0.00000000	      0.50000000	      0.00000000	      0.25000000	     54.23074022	     -2.07519511	      2.13753866	     45.95169546	      0.80200838	     -5.10620456	    -14.92419628	      0.00000000	      0.00000000	     70.53945045	     -3.92072556	      5.54153855	    101.18253592	      1.76596840	    -19.76750259	    -15.71393880	      0.00000000	      0.00000000	    -62.49997494	     -1.35570908	     -3.72569757	     89.70088450	    -13.68207715	     30.62107331	     50.25252266	     30.58650637	      0.00000000	      0.00000000	     89.59175772	    -24.31558233	     35.71633645	     58.86088156	     35.86868595	      0.00000000	      0.00000000
      7.51500000	    -12.51227188	      0.09027366	      0.88804493	      0.06268958	      1.11393010	     -0.26435887	      0.00000000	      0.50000000	      0.00000000	      0.25000000	     52.54385988	     -2.87151397	      1.96150482	     43.49882550	      0.75919773	     -6.11551204	    -14.18660584	      0.00000000	      0.00000000	     71.85788676	     -3.51233004	      5.30114469	    102.67449796	      1.79200805	    -19.21265146	    -15.12285027	      0.00000000	      0.00000000	    -62.52848627	     -1.49242664	     -4.44482028	     89.69559114	    -13.78811357	     30.75066778	     50.00143647	     30.44062740	      0.00000000	      0.00000000	     89.60117548	    -24.20354284	     35.73545728	     59.15511672	     35.79015496	      0.00000000	      0.00000000
      7.52000000	    -12.76766698	      0.65732196	      1.31318521	      0.06326395	      1.11402898	     -0.26334839	      0.00000000	      0.50000000	      0.00000000	      0.25000000	     51.18102108	     -3.63709543	      1.77208825	     41.22566480	      0.71952359	     -6.94718828	    -13.37264160	      0.00000000	      0.00000000	     73.44861569	     -3.18700204	      4.96092600	    104.14147154	      1.81761157	    -18.93518137	    -14.91888769	      0.00000000	      0.00000000	    -62.34513334	     -1.89718746	     -5.24344821	     89.68113174	    -14.00362505	     30.67101043	     49.94439998	     30.40561133	      0.00000000	      0.00000000	     89.61511170	    -23.99030454	     35.76027294	     59.26178238	     35.77980582	      0.00000000	      0.00000000
      7.52500000	    -12.76603024	      1.03917649	      1.86165569	      0.06393298	      1.11499734	     -0.26250356	      0.00000000	      0.50000000	      0.00000000	      0.25000000	     49.37347452	     -4.35013034	      1.27050657	     38.65677024	      0.67468792	     -8.42828600	    -12.76542713	      0.00000000	      0.00000000	     74.73944478	     -2.86540696	      4.86718775	    105.48098004	      1.84099040	    -18.14894815	    -13.78882651	      0.00000000	      0.00000000	    -62.44368175	     -1.89053992	     -5.81550447	     89.68884058	    -13.92835726	     30.92022327	     49.48165902	     30.19845704	      0.00000000	      0.00000000	     89.61473175	    -23.92562643	     35.61678209	     59.49026007	     35.60468339	      0.00000000	      0.00000000
      7.53000000	    -13.09374174	      1.63765314	      2.34953189	      0.06446054	      1.11535047	     -0.26154105	      0.00000000	      0.50000000	      0.00000000	      0.25000000	     48.06881734	     -5.17216627	      1.01900499	     36.40536604	      0.63539350	     -9.50289979	    -11.87808588	      0.00000000	      0.00000000	     76.36628150	     -2.50432916	      4.46855843	    106.71446840	      1.86251883	    -17.73740156	    -13.37738828	      0.00000000	      0.00000000	    -62.21393038	     -2.15466087	     -6.50752388	     89.67554844	    -14.06078570	     30.93768364	     49.32233832	     30.13296196	      0.00000000	      0.00000000	     89.61738653	    -23.69819668	     35.64979158	     59.62334475	     35.56861746	      0.00000000	      0.00000000
      7.53500000	    -13.42978876	      2.21435101	      2.81350421	      0.06481673	      1.11555521	     -0.26036695	      0.00000000	      0.50000000	      0.00000000	      0.25000000	     46.86095003	     -5.94378175	      0.69375609	     34.37220706	      0.59990818	    -10.37377768	    -11.10683747	      0.00000000	      0.00000000	     78.03918308	     -2.25537708	      4.04871615	    107.87509445	      1.88277558	    -17.38515309	    -12.97249224	      0.00000000	      0.00000000	    -61.98037699	     -2.49759918	     -7.32980139	     89.65841400	    -14.26680987	     30.89380993	     49.20015509	     30.08729132	      0.00000000	      0.00000000	     89.63259262	    -23.45255194	     35.68972456	     59.71897116	     35.54986322	      0.00000000	      0.00000000
      7.54000000	    -13.44275353	      2.63147964	      3.49149122	      0.06521692	      1.11672075	     -0.25948520	      0.00000000	      0.50000000	      0.00000000	      0.25000000	     45.14971048	     -6.76314583	     -0.01000847	     32.10416919	      0.56032346	    -11.80762179	    -10.22158606	      0.00000000	      0.00000000	     79.30682723	     -1.83752591	      3.92876083	    108.88303183	      1.90036740	    -16.51549079	    -11.55245000	      0.00000000	      0.00000000	    -62.08953809	     -2.43120008	     -7.95719422	     89.67118137	    -14.23628200	     31.19713587	     48.56006159	     29.90409759	      0.00000000	      0.00000000	     89.63501279	    -23.27434152	     35.61596697	     59.83782408	     35.39084508	      0.00000000	      0.00000000
      7.54500000	    -13.87894373	      3.18655786	      3.89798233	      0.06527073	      1.11690702	     -0.25835733	      0.00000000	      0.50000000	      0.00000000	      0.25000000	     44.13477312	     -7.50492159	     -0.34753798	     30.25432994	      0.52803767	    -12.72513858	     -9.21114703	      0.00000000	      0.00000000	     81.05774438	     -1.60868962	      3.48461620	    109.81755822	      1.91667797	    -16.18987679	    -11.08959160	      0.00000000	      0.00000000	    -61.77629695	     -2.76245299	     -8.60668223	     89.65508301	    -14.40084207	     31.17985550	     48.40127865	     29.85051248	      0.00000000	      0.00000000	     89.64458976	    -23.01820222	     35.64584330	     59.93530594	     35.36132622	      0.00000000	      0.00000000
      7.55000000	    -14.02785034	      3.54848725	      4.49150913	      0.06538649	      1.11767192	     -0.25762280	      0.00000000	      0.50000000	      0.00000000	      0.25000000	     42.75731277	     -8.26767328	     -1.18591395	     28.41861552	      0.49599841	    -13.77969194	     -7.93233708	      0.00000000	      0.00000000	     82.49056629	     -1.24052951	      3.36829642	    110.65044863	      1.93121465	    -15.39376683	     -9.83578632	      0.00000000	      0.00000000	    -61.70631192	     -2.72912520	     -9.10605464	     89.66505616	    -14.46105961	     31.44823698	     47.78143649	     29.66434027	      0.00000000	      0.00000000	     89.64823584	    -22.71804146	     35.60739946	     59.92987398	     35.14632377	      0.00000000	      0.00000000
      7.55500000	    -14.49990235	      4.02246863	      4.87289221	      0.06542817	      1.11789945	     -0.25651669	      0.00000000	      0.50000000	      0.00000000	      0.25000000	     41.87907291	     -8.93215886	     -1.61441824	     26.83705673	      0.46839500	    -14.65425089	     -6.86652495	      0.00000000	      0.00000000	     84.20226330	     -1.15417425	      2.89261386	    111.34129508	      1.94327219	    -15.04970834	     -9.51108549	      0.00000000	      0.00000000	    -61.36461723	     -3.01182170	     -9.63152511	     89.64795325	    -14.64545362	     31.45150051	     47.63980590	     29.61601358	      0.00000000	      0.00000000	     89.65466296	    -22.46831440	     35.63729628	     60.01695081	     35.10649070	      0.00000000	      0.00000000
      7.56000000	    -14.87261484	      4.40545385	      5.37797043	      0.06524402	      1.11831543	     -0.25553501	      0.00000000	      0.50000000	      0.00000000	      0.25000000	     40.93623885	     -9.58772510	     -2.19121850	     25.44571738	      0.44411155	    -15.46635101	     -5.84891689	      0.00000000	      0.00000000	     85.80857822	     -0.85915937	      2.59663482	    111.88089069	      1.95268991	    -14.89141163	     -8.93808166	      0.00000000	      0.00000000	    -61.11667833	     -3.10708528	    -10.08635938	     89.63850769	    -14.85392276	     31.48698474	     47.42124174	     29.55749176	      0.00000000	      0.00000000	     89.66182529	    -22.19591294	     35.66250280	     60.10225486	     35.06078128	      0.00000000	      0.00000000
      7.56500000	    -15.22660847	      4.67668395	      5.86707126	      0.06506101	      1.11862946	     -0.25480924	      0.00000000	      0.50000000	      0.00000000	      0.25000000	     40.05271419	    -10.14675256	     -2.83088411	     24.26246619	      0.42345992	    -16.11941189	     -4.87335139	      0.00000000	      0.00000000	     87.35435771	     -0.57876215	      2.36476036	    112.33308359	      1.96058217	    -14.52408039	     -8.45487134	      0.00000000	      0.00000000	    -60.87706419	     -3.13407951	    -10.43479657	     89.62952244	    -15.06129968	     31.55938454	     47.16642154	     29.49819745	      0.00000000	      0.00000000	     89.66633154	    -21.90604077	     35.69645367	     60.19302638	     35.01777020	      0.00000000	      0.00000000
      7.57000000	    -15.51906200	      4.85529874	      6.35683888	      0.06473040	      1.11891527	     -0.25417140	      0.00000000	      0.50000000	      0.00000000	      0.25000000	     39.23077223	    -10.62711618	     -3.54741896	     23.35521777	      0.40762545	    -16.60504010	     -3.92410562	      0.00000000	      0.00000000	     88.82080236	     -0.27604244	      2.23520562	    112.67104703	      1.96648074	    -14.23979595	     -7.88751826	      0.00000000	      0.00000000	    -60.66557792	     -3.05285048	    -10.63478764	     89.62891782	    -15.30030537	     31.66297079	     46.86173837	     29.42873117	      0.00000000	      0.00000000	     89.67265376	    -21.59004292	     35.71631901	     60.27443134	     34.95261455	      0.00000000	      0.00000000
